<svg width="19" height="19" viewBox="0 0 19 19" fill="none" xmlns="http://www.w3.org/2000/svg">
<rect width="19" height="19" fill="#E5E5E5"/>
<g clip-path="url(#clip0_0_1)">
<rect width="375" height="812" transform="translate(-331 -536)" fill="white"/>
<rect x="-311" y="-6" width="335" height="29.9313" rx="5" fill="#FF6060"/>
<g clip-path="url(#clip1_0_1)">
<path d="M8.19313 14.1096C8.63941 14.5559 9.36416 14.5559 9.81044 14.1096L16.6653 7.25476C17.1116 6.80848 17.1116 6.08372 16.6653 5.63744C16.219 5.19116 15.4943 5.19116 15.048 5.63744L9 11.6854L2.95202 5.64101C2.50575 5.19473 1.78099 5.19473 1.33471 5.64101C0.88843 6.08729 0.88843 6.81205 1.33471 7.25833L8.18956 14.1132L8.19313 14.1096Z" fill="white"/>
</g>
</g>
<defs>
<clipPath id="clip0_0_1">
<rect width="375" height="812" fill="white" transform="translate(-331 -536)"/>
</clipPath>
<clipPath id="clip1_0_1">
<rect width="18.42" height="18.42" fill="white" transform="translate(18.4199) rotate(90)"/>
</clipPath>
</defs>
</svg>
